<svg xmlns="http://www.w3.org/2000/svg" width="50" height="50" fill="none"><path fill="#333" fill-rule="evenodd" d="M8.863 44.094a25.03 25.03 0 0 0 31.607.561c.051-.04.1-.085.146-.132a25 25 0 1 0-31.753-.429Zm31.927-3.851a21.955 21.955 0 0 0 6.17-15.233A21.977 21.977 0 0 0 25.013 3.063a21.937 21.937 0 0 0-15.76 37.196 16.023 16.023 0 0 1 31.537-.016Zm-2.806 2.447a12.982 12.982 0 0 0-25.942 0 21.948 21.948 0 0 0 25.942 0ZM19.815 24.311a9.35 9.35 0 0 0 5.198 1.571 9.36 9.36 0 0 0 9.34-9.35 9.35 9.35 0 1 0-14.538 7.78Zm1.69-13.019a6.308 6.308 0 0 1 3.508-1.059 6.298 6.298 0 0 1 6.298 6.298 6.308 6.308 0 1 1-9.806-5.239Z" clip-rule="evenodd"/></svg>
